G04 #@! TF.FileFunction,Copper,L2,Bot,Signal*
%FSLAX46Y46*%
G04 Gerber Fmt 4.6, Leading zero omitted, Abs format (unit mm)*
G04 Created by KiCad (PCBNEW 4.0.0-rc1-stable) date 11/10/2015 10:30:29 PM*
%MOMM*%
G01*
G04 APERTURE LIST*
%ADD10C,0.100000*%
%ADD11R,1.000000X1.000000*%
%ADD12C,1.000000*%
%ADD13R,2.000000X2.000000*%
%ADD14C,2.000000*%
%ADD15C,0.600000*%
%ADD16C,0.350000*%
%ADD17C,0.254000*%
G04 APERTURE END LIST*
D10*
D11*
X147828000Y-102489000D03*
D12*
X149098000Y-102489000D03*
X147828000Y-103759000D03*
X149098000Y-103759000D03*
X147828000Y-105029000D03*
X149098000Y-105029000D03*
X147828000Y-106299000D03*
X149098000Y-106299000D03*
X147828000Y-107569000D03*
X149098000Y-107569000D03*
D13*
X139954000Y-98679000D03*
D14*
X139954000Y-101219000D03*
X139954000Y-103759000D03*
X139954000Y-106299000D03*
X139954000Y-108839000D03*
X139954000Y-111379000D03*
D15*
X144526000Y-103378000D03*
X150749000Y-103505000D03*
X151511000Y-111125000D03*
X152654000Y-109855000D03*
X154432000Y-100711000D03*
X153797000Y-105918000D03*
X151765000Y-104267000D03*
X153162000Y-111760000D03*
X154432000Y-106934000D03*
X144272000Y-107442000D03*
X144272000Y-109982000D03*
D16*
X146317795Y-101613999D02*
X144553794Y-103378000D01*
X148930105Y-101613999D02*
X146317795Y-101613999D01*
X144553794Y-103378000D02*
X144526000Y-103378000D01*
X149098000Y-102489000D02*
X149098000Y-101781894D01*
X149098000Y-101781894D02*
X148930105Y-101613999D01*
X149098000Y-102489000D02*
X149733000Y-102489000D01*
X149733000Y-102489000D02*
X150749000Y-103505000D01*
X152654000Y-109855000D02*
X152654000Y-109982000D01*
X152654000Y-109982000D02*
X151511000Y-111125000D01*
X149098000Y-107569000D02*
X149098000Y-108276106D01*
X149098000Y-108276106D02*
X148930105Y-108444001D01*
X148930105Y-108444001D02*
X147407999Y-108444001D01*
X147407999Y-108444001D02*
X141329001Y-102365003D01*
X141304000Y-98679000D02*
X139954000Y-98679000D01*
X141329001Y-102365003D02*
X141329001Y-98704001D01*
X141329001Y-98704001D02*
X141304000Y-98679000D01*
X149098000Y-107569000D02*
X149805106Y-107569000D01*
X149805106Y-107569000D02*
X153797000Y-103577106D01*
X153797000Y-103577106D02*
X153797000Y-101346000D01*
X153797000Y-101346000D02*
X154432000Y-100711000D01*
X153797000Y-105918000D02*
X148336000Y-111379000D01*
X148336000Y-111379000D02*
X139954000Y-111379000D01*
X149098000Y-105029000D02*
X151003000Y-105029000D01*
X151003000Y-105029000D02*
X151765000Y-104267000D01*
X153924000Y-107442000D02*
X153924000Y-110998000D01*
X153924000Y-110998000D02*
X153162000Y-111760000D01*
X154432000Y-106934000D02*
X153924000Y-107442000D01*
X144272000Y-107442000D02*
X144272000Y-109982000D01*
D17*
G36*
X159758585Y-95057482D02*
X160182961Y-95341042D01*
X160466517Y-95765414D01*
X160580000Y-96335931D01*
X160580000Y-112960069D01*
X160466517Y-113530586D01*
X160182961Y-113954958D01*
X159758585Y-114238518D01*
X159188069Y-114352000D01*
X138499931Y-114352000D01*
X137929414Y-114238517D01*
X137505042Y-113954961D01*
X137221482Y-113530585D01*
X137108000Y-112960069D01*
X137108000Y-103494461D01*
X138308092Y-103494461D01*
X138332144Y-104144460D01*
X138534613Y-104633264D01*
X138801468Y-104731927D01*
X139774395Y-103759000D01*
X138801468Y-102786073D01*
X138534613Y-102884736D01*
X138308092Y-103494461D01*
X137108000Y-103494461D01*
X137108000Y-97679000D01*
X138306560Y-97679000D01*
X138306560Y-99679000D01*
X138350838Y-99914317D01*
X138489910Y-100130441D01*
X138632561Y-100227910D01*
X138568722Y-100291637D01*
X138319284Y-100892352D01*
X138318716Y-101542795D01*
X138567106Y-102143943D01*
X138993978Y-102571562D01*
X138981073Y-102606468D01*
X139954000Y-103579395D01*
X139968143Y-103565253D01*
X140147748Y-103744858D01*
X140133605Y-103759000D01*
X141106532Y-104731927D01*
X141373387Y-104633264D01*
X141599908Y-104023539D01*
X141590605Y-103772119D01*
X146835242Y-109016757D01*
X146939031Y-109086106D01*
X147098025Y-109192343D01*
X147407999Y-109254001D01*
X148930105Y-109254001D01*
X149240079Y-109192343D01*
X149502861Y-109016757D01*
X149670756Y-108848863D01*
X149767682Y-108703803D01*
X149846342Y-108586080D01*
X149886149Y-108385959D01*
X149915022Y-108357136D01*
X150115080Y-108317342D01*
X150377862Y-108141756D01*
X152914528Y-105605091D01*
X152879116Y-105690371D01*
X148000488Y-110569000D01*
X141388388Y-110569000D01*
X141340894Y-110454057D01*
X140996241Y-110108801D01*
X141339278Y-109766363D01*
X141588716Y-109165648D01*
X141589284Y-108515205D01*
X141340894Y-107914057D01*
X140996241Y-107568801D01*
X141339278Y-107226363D01*
X141588716Y-106625648D01*
X141589284Y-105975205D01*
X141340894Y-105374057D01*
X140914022Y-104946438D01*
X140926927Y-104911532D01*
X139954000Y-103938605D01*
X138981073Y-104911532D01*
X138994164Y-104946938D01*
X138568722Y-105371637D01*
X138319284Y-105972352D01*
X138318716Y-106622795D01*
X138567106Y-107223943D01*
X138911759Y-107569199D01*
X138568722Y-107911637D01*
X138319284Y-108512352D01*
X138318716Y-109162795D01*
X138567106Y-109763943D01*
X138911759Y-110109199D01*
X138568722Y-110451637D01*
X138319284Y-111052352D01*
X138318716Y-111702795D01*
X138567106Y-112303943D01*
X139026637Y-112764278D01*
X139627352Y-113013716D01*
X140277795Y-113014284D01*
X140878943Y-112765894D01*
X141339278Y-112306363D01*
X141388011Y-112189000D01*
X148336000Y-112189000D01*
X148645974Y-112127342D01*
X148908756Y-111951756D01*
X149550345Y-111310167D01*
X150575838Y-111310167D01*
X150717883Y-111653943D01*
X150980673Y-111917192D01*
X151324201Y-112059838D01*
X151696167Y-112060162D01*
X152039943Y-111918117D01*
X152303192Y-111655327D01*
X152428884Y-111352628D01*
X153098508Y-110683005D01*
X153182943Y-110648117D01*
X153446192Y-110385327D01*
X153588838Y-110041799D01*
X153589162Y-109669833D01*
X153447117Y-109326057D01*
X153184327Y-109062808D01*
X152840799Y-108920162D01*
X152468833Y-108919838D01*
X152125057Y-109061883D01*
X151861808Y-109324673D01*
X151719162Y-109668201D01*
X151719072Y-109771415D01*
X151282917Y-110207570D01*
X150982057Y-110331883D01*
X150718808Y-110594673D01*
X150576162Y-110938201D01*
X150575838Y-111310167D01*
X149550345Y-111310167D01*
X154025084Y-106835429D01*
X154325943Y-106711117D01*
X154589192Y-106448327D01*
X154731838Y-106104799D01*
X154732162Y-105732833D01*
X154590117Y-105389057D01*
X154327327Y-105125808D01*
X153983799Y-104983162D01*
X153611833Y-104982838D01*
X153483934Y-105035685D01*
X154369757Y-104149862D01*
X154545343Y-103887079D01*
X154607000Y-103577106D01*
X154607000Y-101681512D01*
X154660083Y-101628430D01*
X154960943Y-101504117D01*
X155224192Y-101241327D01*
X155366838Y-100897799D01*
X155367162Y-100525833D01*
X155225117Y-100182057D01*
X154962327Y-99918808D01*
X154618799Y-99776162D01*
X154246833Y-99775838D01*
X153903057Y-99917883D01*
X153639808Y-100180673D01*
X153514116Y-100483372D01*
X153224244Y-100773244D01*
X153048658Y-101036026D01*
X152987000Y-101346000D01*
X152987000Y-103241593D01*
X152524356Y-103704237D01*
X152295327Y-103474808D01*
X151951799Y-103332162D01*
X151684151Y-103331929D01*
X151684162Y-103319833D01*
X151542117Y-102976057D01*
X151279327Y-102712808D01*
X150976629Y-102587116D01*
X150305756Y-101916244D01*
X150042974Y-101740658D01*
X149932824Y-101718748D01*
X149886136Y-101671978D01*
X149846342Y-101471920D01*
X149758549Y-101340529D01*
X149670756Y-101209137D01*
X149502861Y-101041243D01*
X149399073Y-100971894D01*
X149240079Y-100865657D01*
X148930105Y-100803999D01*
X146317795Y-100803999D01*
X146007821Y-100865657D01*
X145876430Y-100953450D01*
X145745038Y-101041243D01*
X144343442Y-102442840D01*
X144340833Y-102442838D01*
X143997057Y-102584883D01*
X143733808Y-102847673D01*
X143591162Y-103191201D01*
X143590909Y-103481399D01*
X142139001Y-102029491D01*
X142139001Y-98704001D01*
X142104767Y-98531898D01*
X142077344Y-98394028D01*
X141901758Y-98131245D01*
X141876756Y-98106244D01*
X141651390Y-97955659D01*
X141613974Y-97930658D01*
X141601440Y-97928165D01*
X141601440Y-97679000D01*
X141557162Y-97443683D01*
X141418090Y-97227559D01*
X141205890Y-97082569D01*
X140954000Y-97031560D01*
X138954000Y-97031560D01*
X138718683Y-97075838D01*
X138502559Y-97214910D01*
X138357569Y-97427110D01*
X138306560Y-97679000D01*
X137108000Y-97679000D01*
X137108000Y-96335931D01*
X137221482Y-95765415D01*
X137505042Y-95341039D01*
X137929414Y-95057483D01*
X138499931Y-94944000D01*
X159188069Y-94944000D01*
X159758585Y-95057482D01*
X159758585Y-95057482D01*
G37*
X159758585Y-95057482D02*
X160182961Y-95341042D01*
X160466517Y-95765414D01*
X160580000Y-96335931D01*
X160580000Y-112960069D01*
X160466517Y-113530586D01*
X160182961Y-113954958D01*
X159758585Y-114238518D01*
X159188069Y-114352000D01*
X138499931Y-114352000D01*
X137929414Y-114238517D01*
X137505042Y-113954961D01*
X137221482Y-113530585D01*
X137108000Y-112960069D01*
X137108000Y-103494461D01*
X138308092Y-103494461D01*
X138332144Y-104144460D01*
X138534613Y-104633264D01*
X138801468Y-104731927D01*
X139774395Y-103759000D01*
X138801468Y-102786073D01*
X138534613Y-102884736D01*
X138308092Y-103494461D01*
X137108000Y-103494461D01*
X137108000Y-97679000D01*
X138306560Y-97679000D01*
X138306560Y-99679000D01*
X138350838Y-99914317D01*
X138489910Y-100130441D01*
X138632561Y-100227910D01*
X138568722Y-100291637D01*
X138319284Y-100892352D01*
X138318716Y-101542795D01*
X138567106Y-102143943D01*
X138993978Y-102571562D01*
X138981073Y-102606468D01*
X139954000Y-103579395D01*
X139968143Y-103565253D01*
X140147748Y-103744858D01*
X140133605Y-103759000D01*
X141106532Y-104731927D01*
X141373387Y-104633264D01*
X141599908Y-104023539D01*
X141590605Y-103772119D01*
X146835242Y-109016757D01*
X146939031Y-109086106D01*
X147098025Y-109192343D01*
X147407999Y-109254001D01*
X148930105Y-109254001D01*
X149240079Y-109192343D01*
X149502861Y-109016757D01*
X149670756Y-108848863D01*
X149767682Y-108703803D01*
X149846342Y-108586080D01*
X149886149Y-108385959D01*
X149915022Y-108357136D01*
X150115080Y-108317342D01*
X150377862Y-108141756D01*
X152914528Y-105605091D01*
X152879116Y-105690371D01*
X148000488Y-110569000D01*
X141388388Y-110569000D01*
X141340894Y-110454057D01*
X140996241Y-110108801D01*
X141339278Y-109766363D01*
X141588716Y-109165648D01*
X141589284Y-108515205D01*
X141340894Y-107914057D01*
X140996241Y-107568801D01*
X141339278Y-107226363D01*
X141588716Y-106625648D01*
X141589284Y-105975205D01*
X141340894Y-105374057D01*
X140914022Y-104946438D01*
X140926927Y-104911532D01*
X139954000Y-103938605D01*
X138981073Y-104911532D01*
X138994164Y-104946938D01*
X138568722Y-105371637D01*
X138319284Y-105972352D01*
X138318716Y-106622795D01*
X138567106Y-107223943D01*
X138911759Y-107569199D01*
X138568722Y-107911637D01*
X138319284Y-108512352D01*
X138318716Y-109162795D01*
X138567106Y-109763943D01*
X138911759Y-110109199D01*
X138568722Y-110451637D01*
X138319284Y-111052352D01*
X138318716Y-111702795D01*
X138567106Y-112303943D01*
X139026637Y-112764278D01*
X139627352Y-113013716D01*
X140277795Y-113014284D01*
X140878943Y-112765894D01*
X141339278Y-112306363D01*
X141388011Y-112189000D01*
X148336000Y-112189000D01*
X148645974Y-112127342D01*
X148908756Y-111951756D01*
X149550345Y-111310167D01*
X150575838Y-111310167D01*
X150717883Y-111653943D01*
X150980673Y-111917192D01*
X151324201Y-112059838D01*
X151696167Y-112060162D01*
X152039943Y-111918117D01*
X152303192Y-111655327D01*
X152428884Y-111352628D01*
X153098508Y-110683005D01*
X153182943Y-110648117D01*
X153446192Y-110385327D01*
X153588838Y-110041799D01*
X153589162Y-109669833D01*
X153447117Y-109326057D01*
X153184327Y-109062808D01*
X152840799Y-108920162D01*
X152468833Y-108919838D01*
X152125057Y-109061883D01*
X151861808Y-109324673D01*
X151719162Y-109668201D01*
X151719072Y-109771415D01*
X151282917Y-110207570D01*
X150982057Y-110331883D01*
X150718808Y-110594673D01*
X150576162Y-110938201D01*
X150575838Y-111310167D01*
X149550345Y-111310167D01*
X154025084Y-106835429D01*
X154325943Y-106711117D01*
X154589192Y-106448327D01*
X154731838Y-106104799D01*
X154732162Y-105732833D01*
X154590117Y-105389057D01*
X154327327Y-105125808D01*
X153983799Y-104983162D01*
X153611833Y-104982838D01*
X153483934Y-105035685D01*
X154369757Y-104149862D01*
X154545343Y-103887079D01*
X154607000Y-103577106D01*
X154607000Y-101681512D01*
X154660083Y-101628430D01*
X154960943Y-101504117D01*
X155224192Y-101241327D01*
X155366838Y-100897799D01*
X155367162Y-100525833D01*
X155225117Y-100182057D01*
X154962327Y-99918808D01*
X154618799Y-99776162D01*
X154246833Y-99775838D01*
X153903057Y-99917883D01*
X153639808Y-100180673D01*
X153514116Y-100483372D01*
X153224244Y-100773244D01*
X153048658Y-101036026D01*
X152987000Y-101346000D01*
X152987000Y-103241593D01*
X152524356Y-103704237D01*
X152295327Y-103474808D01*
X151951799Y-103332162D01*
X151684151Y-103331929D01*
X151684162Y-103319833D01*
X151542117Y-102976057D01*
X151279327Y-102712808D01*
X150976629Y-102587116D01*
X150305756Y-101916244D01*
X150042974Y-101740658D01*
X149932824Y-101718748D01*
X149886136Y-101671978D01*
X149846342Y-101471920D01*
X149758549Y-101340529D01*
X149670756Y-101209137D01*
X149502861Y-101041243D01*
X149399073Y-100971894D01*
X149240079Y-100865657D01*
X148930105Y-100803999D01*
X146317795Y-100803999D01*
X146007821Y-100865657D01*
X145876430Y-100953450D01*
X145745038Y-101041243D01*
X144343442Y-102442840D01*
X144340833Y-102442838D01*
X143997057Y-102584883D01*
X143733808Y-102847673D01*
X143591162Y-103191201D01*
X143590909Y-103481399D01*
X142139001Y-102029491D01*
X142139001Y-98704001D01*
X142104767Y-98531898D01*
X142077344Y-98394028D01*
X141901758Y-98131245D01*
X141876756Y-98106244D01*
X141651390Y-97955659D01*
X141613974Y-97930658D01*
X141601440Y-97928165D01*
X141601440Y-97679000D01*
X141557162Y-97443683D01*
X141418090Y-97227559D01*
X141205890Y-97082569D01*
X140954000Y-97031560D01*
X138954000Y-97031560D01*
X138718683Y-97075838D01*
X138502559Y-97214910D01*
X138357569Y-97427110D01*
X138306560Y-97679000D01*
X137108000Y-97679000D01*
X137108000Y-96335931D01*
X137221482Y-95765415D01*
X137505042Y-95341039D01*
X137929414Y-95057483D01*
X138499931Y-94944000D01*
X159188069Y-94944000D01*
X159758585Y-95057482D01*
G36*
X147900955Y-107434065D02*
X147963063Y-107496173D01*
X147962942Y-107634001D01*
X147743512Y-107634001D01*
X147649311Y-107539800D01*
X147755173Y-107433937D01*
X147900955Y-107434065D01*
X147900955Y-107434065D01*
G37*
X147900955Y-107434065D02*
X147963063Y-107496173D01*
X147962942Y-107634001D01*
X147743512Y-107634001D01*
X147649311Y-107539800D01*
X147755173Y-107433937D01*
X147900955Y-107434065D01*
G36*
X147963063Y-104956173D02*
X147962935Y-105101955D01*
X147900827Y-105164063D01*
X147755046Y-105163936D01*
X147634253Y-105043143D01*
X147648395Y-105029000D01*
X147634253Y-105014858D01*
X147746497Y-104902613D01*
X147898723Y-104891833D01*
X147963063Y-104956173D01*
X147963063Y-104956173D01*
G37*
X147963063Y-104956173D02*
X147962935Y-105101955D01*
X147900827Y-105164063D01*
X147755046Y-105163936D01*
X147634253Y-105043143D01*
X147648395Y-105029000D01*
X147634253Y-105014858D01*
X147746497Y-104902613D01*
X147898723Y-104891833D01*
X147963063Y-104956173D01*
G36*
X147963063Y-103686173D02*
X147962935Y-103831955D01*
X147909503Y-103885387D01*
X147757276Y-103896166D01*
X147634253Y-103773143D01*
X147648395Y-103759000D01*
X147634253Y-103744858D01*
X147742670Y-103636440D01*
X147913330Y-103636440D01*
X147963063Y-103686173D01*
X147963063Y-103686173D01*
G37*
X147963063Y-103686173D02*
X147962935Y-103831955D01*
X147909503Y-103885387D01*
X147757276Y-103896166D01*
X147634253Y-103773143D01*
X147648395Y-103759000D01*
X147634253Y-103744858D01*
X147742670Y-103636440D01*
X147913330Y-103636440D01*
X147963063Y-103686173D01*
M02*
