G04 #@! TF.FileFunction,Soldermask,Top*
%FSLAX46Y46*%
G04 Gerber Fmt 4.6, Leading zero omitted, Abs format (unit mm)*
G04 Created by KiCad (PCBNEW 4.0.0-rc1-stable) date 11/10/2015 10:30:29 PM*
%MOMM*%
G01*
G04 APERTURE LIST*
%ADD10C,0.100000*%
%ADD11C,0.150000*%
%ADD12R,2.075000X1.000000*%
%ADD13R,2.200000X1.600000*%
%ADD14R,1.400000X1.400000*%
%ADD15C,1.400000*%
%ADD16R,2.400000X2.400000*%
%ADD17C,2.400000*%
G04 APERTURE END LIST*
D10*
D11*
X141058190Y-112990381D02*
X141058190Y-113704667D01*
X141010570Y-113847524D01*
X140915332Y-113942762D01*
X140772475Y-113990381D01*
X140677237Y-113990381D01*
X141486761Y-113942762D02*
X141629618Y-113990381D01*
X141867714Y-113990381D01*
X141962952Y-113942762D01*
X142010571Y-113895143D01*
X142058190Y-113799905D01*
X142058190Y-113704667D01*
X142010571Y-113609429D01*
X141962952Y-113561810D01*
X141867714Y-113514190D01*
X141677237Y-113466571D01*
X141581999Y-113418952D01*
X141534380Y-113371333D01*
X141486761Y-113276095D01*
X141486761Y-113180857D01*
X141534380Y-113085619D01*
X141581999Y-113038000D01*
X141677237Y-112990381D01*
X141915333Y-112990381D01*
X142058190Y-113038000D01*
X142343904Y-112990381D02*
X142915333Y-112990381D01*
X142629618Y-113990381D02*
X142629618Y-112990381D01*
X144010571Y-113990381D02*
X144010571Y-112990381D01*
X144391524Y-112990381D01*
X144486762Y-113038000D01*
X144534381Y-113085619D01*
X144582000Y-113180857D01*
X144582000Y-113323714D01*
X144534381Y-113418952D01*
X144486762Y-113466571D01*
X144391524Y-113514190D01*
X144010571Y-113514190D01*
X145582000Y-113990381D02*
X145248666Y-113514190D01*
X145010571Y-113990381D02*
X145010571Y-112990381D01*
X145391524Y-112990381D01*
X145486762Y-113038000D01*
X145534381Y-113085619D01*
X145582000Y-113180857D01*
X145582000Y-113323714D01*
X145534381Y-113418952D01*
X145486762Y-113466571D01*
X145391524Y-113514190D01*
X145010571Y-113514190D01*
X146201047Y-112990381D02*
X146391524Y-112990381D01*
X146486762Y-113038000D01*
X146582000Y-113133238D01*
X146629619Y-113323714D01*
X146629619Y-113657048D01*
X146582000Y-113847524D01*
X146486762Y-113942762D01*
X146391524Y-113990381D01*
X146201047Y-113990381D01*
X146105809Y-113942762D01*
X146010571Y-113847524D01*
X145962952Y-113657048D01*
X145962952Y-113323714D01*
X146010571Y-113133238D01*
X146105809Y-113038000D01*
X146201047Y-112990381D01*
X147582000Y-113038000D02*
X147486762Y-112990381D01*
X147343905Y-112990381D01*
X147201047Y-113038000D01*
X147105809Y-113133238D01*
X147058190Y-113228476D01*
X147010571Y-113418952D01*
X147010571Y-113561810D01*
X147058190Y-113752286D01*
X147105809Y-113847524D01*
X147201047Y-113942762D01*
X147343905Y-113990381D01*
X147439143Y-113990381D01*
X147582000Y-113942762D01*
X147629619Y-113895143D01*
X147629619Y-113561810D01*
X147439143Y-113561810D01*
X148772476Y-113704667D02*
X149248667Y-113704667D01*
X148677238Y-113990381D02*
X149010571Y-112990381D01*
X149343905Y-113990381D01*
X149677238Y-113990381D02*
X149677238Y-112990381D01*
X149915333Y-112990381D01*
X150058191Y-113038000D01*
X150153429Y-113133238D01*
X150201048Y-113228476D01*
X150248667Y-113418952D01*
X150248667Y-113561810D01*
X150201048Y-113752286D01*
X150153429Y-113847524D01*
X150058191Y-113942762D01*
X149915333Y-113990381D01*
X149677238Y-113990381D01*
X150629619Y-113704667D02*
X151105810Y-113704667D01*
X150534381Y-113990381D02*
X150867714Y-112990381D01*
X151201048Y-113990381D01*
X151534381Y-113990381D02*
X151534381Y-112990381D01*
X151915334Y-112990381D01*
X152010572Y-113038000D01*
X152058191Y-113085619D01*
X152105810Y-113180857D01*
X152105810Y-113323714D01*
X152058191Y-113418952D01*
X152010572Y-113466571D01*
X151915334Y-113514190D01*
X151534381Y-113514190D01*
X152391524Y-112990381D02*
X152962953Y-112990381D01*
X152677238Y-113990381D02*
X152677238Y-112990381D01*
X153915334Y-112990381D02*
X154248667Y-113990381D01*
X154582001Y-112990381D01*
X155439144Y-113990381D02*
X154867715Y-113990381D01*
X155153429Y-113990381D02*
X155153429Y-112990381D01*
X155058191Y-113133238D01*
X154962953Y-113228476D01*
X154867715Y-113276095D01*
D12*
X156337000Y-97663000D03*
X156337000Y-98663000D03*
X156337000Y-99663000D03*
X156337000Y-100663000D03*
X156337000Y-101663000D03*
X156337000Y-102663000D03*
D13*
X159137000Y-103763000D03*
X159137000Y-96563000D03*
D14*
X147828000Y-102489000D03*
D15*
X149098000Y-102489000D03*
X147828000Y-103759000D03*
X149098000Y-103759000D03*
X147828000Y-105029000D03*
X149098000Y-105029000D03*
X147828000Y-106299000D03*
X149098000Y-106299000D03*
X147828000Y-107569000D03*
X149098000Y-107569000D03*
D12*
X156337000Y-107950000D03*
X156337000Y-108950000D03*
X156337000Y-109950000D03*
X156337000Y-110950000D03*
X156337000Y-111950000D03*
D13*
X159137000Y-113050000D03*
X159137000Y-106850000D03*
D16*
X139954000Y-98679000D03*
D17*
X139954000Y-101219000D03*
X139954000Y-103759000D03*
X139954000Y-106299000D03*
X139954000Y-108839000D03*
X139954000Y-111379000D03*
M02*
