G04 #@! TF.FileFunction,Copper,L1,Top,Signal*
%FSLAX46Y46*%
G04 Gerber Fmt 4.6, Leading zero omitted, Abs format (unit mm)*
G04 Created by KiCad (PCBNEW 4.0.0-rc1-stable) date 11/10/2015 10:30:29 PM*
%MOMM*%
G01*
G04 APERTURE LIST*
%ADD10C,0.100000*%
%ADD11R,1.675000X0.600000*%
%ADD12R,1.800000X1.200000*%
%ADD13R,1.000000X1.000000*%
%ADD14C,1.000000*%
%ADD15R,2.000000X2.000000*%
%ADD16C,2.000000*%
%ADD17C,0.600000*%
%ADD18C,0.250000*%
%ADD19C,0.350000*%
%ADD20C,0.254000*%
G04 APERTURE END LIST*
D10*
D11*
X156337000Y-97663000D03*
X156337000Y-98663000D03*
X156337000Y-99663000D03*
X156337000Y-100663000D03*
X156337000Y-101663000D03*
X156337000Y-102663000D03*
D12*
X159137000Y-103763000D03*
X159137000Y-96563000D03*
D13*
X147828000Y-102489000D03*
D14*
X149098000Y-102489000D03*
X147828000Y-103759000D03*
X149098000Y-103759000D03*
X147828000Y-105029000D03*
X149098000Y-105029000D03*
X147828000Y-106299000D03*
X149098000Y-106299000D03*
X147828000Y-107569000D03*
X149098000Y-107569000D03*
D11*
X156337000Y-107950000D03*
X156337000Y-108950000D03*
X156337000Y-109950000D03*
X156337000Y-110950000D03*
X156337000Y-111950000D03*
D12*
X159137000Y-113050000D03*
X159137000Y-106850000D03*
D15*
X139954000Y-98679000D03*
D16*
X139954000Y-101219000D03*
X139954000Y-103759000D03*
X139954000Y-106299000D03*
X139954000Y-108839000D03*
X139954000Y-111379000D03*
D17*
X144526000Y-103378000D03*
X150749000Y-103505000D03*
X151511000Y-111125000D03*
X152654000Y-109855000D03*
X154432000Y-100711000D03*
X153797000Y-105918000D03*
X151765000Y-104267000D03*
X153162000Y-111760000D03*
X154432000Y-106934000D03*
X144272000Y-107442000D03*
X144272000Y-109982000D03*
D18*
X156337000Y-107950000D02*
X156337000Y-107400000D01*
X156337000Y-107400000D02*
X157499501Y-106237499D01*
X157499501Y-106237499D02*
X157499501Y-97738001D01*
X157499501Y-97738001D02*
X157424500Y-97663000D01*
X157424500Y-97663000D02*
X156337000Y-97663000D01*
D19*
X147828000Y-102489000D02*
X147828000Y-101639000D01*
X147828000Y-101639000D02*
X151804000Y-97663000D01*
X151804000Y-97663000D02*
X155149500Y-97663000D01*
X155149500Y-97663000D02*
X156337000Y-97663000D01*
X139954000Y-101219000D02*
X141224000Y-102489000D01*
X141224000Y-102489000D02*
X147828000Y-102489000D01*
X144526000Y-103378000D02*
X142875000Y-103378000D01*
X142875000Y-103378000D02*
X139954000Y-106299000D01*
X150749000Y-103505000D02*
X150749000Y-104549500D01*
X150749000Y-104549500D02*
X155149500Y-108950000D01*
X155149500Y-108950000D02*
X156337000Y-108950000D01*
X149098000Y-102489000D02*
X152924000Y-98663000D01*
X152924000Y-98663000D02*
X156337000Y-98663000D01*
X151511000Y-111125000D02*
X149225000Y-108839000D01*
X149225000Y-108839000D02*
X139954000Y-108839000D01*
X156337000Y-109950000D02*
X152749000Y-109950000D01*
X152749000Y-109950000D02*
X152654000Y-109855000D01*
X149098000Y-103759000D02*
X153194000Y-99663000D01*
X153194000Y-99663000D02*
X156337000Y-99663000D01*
X156305000Y-99695000D02*
X156337000Y-99663000D01*
X149098000Y-103759000D02*
X155289000Y-109950000D01*
X155289000Y-109950000D02*
X156337000Y-109950000D01*
X154432000Y-100711000D02*
X156289000Y-100711000D01*
X156289000Y-100711000D02*
X156337000Y-100663000D01*
X149098000Y-107569000D02*
X152479000Y-110950000D01*
X152479000Y-110950000D02*
X156337000Y-110950000D01*
X154369000Y-101663000D02*
X154369000Y-105346000D01*
X154369000Y-105346000D02*
X153797000Y-105918000D01*
X151765000Y-104267000D02*
X154369000Y-101663000D01*
X154369000Y-101663000D02*
X156337000Y-101663000D01*
X147828000Y-105029000D02*
X147828000Y-103759000D01*
X153162000Y-111760000D02*
X156147000Y-111760000D01*
X156147000Y-111760000D02*
X156337000Y-111950000D01*
X156337000Y-102663000D02*
X156337000Y-105029000D01*
X156337000Y-105029000D02*
X154432000Y-106934000D01*
X144272000Y-107315000D02*
X144272000Y-107442000D01*
X147828000Y-103759000D02*
X144272000Y-107315000D01*
X147828000Y-107569000D02*
X147120894Y-107569000D01*
X147120894Y-107569000D02*
X146952999Y-107401105D01*
X146952999Y-107401105D02*
X146952999Y-105904001D01*
X146952999Y-105904001D02*
X147328001Y-105528999D01*
X147328001Y-105528999D02*
X147828000Y-105029000D01*
D20*
G36*
X159758585Y-95057482D02*
X160182961Y-95341042D01*
X160186110Y-95345756D01*
X160037000Y-95315560D01*
X158237000Y-95315560D01*
X158001683Y-95359838D01*
X157785559Y-95498910D01*
X157640569Y-95711110D01*
X157589560Y-95963000D01*
X157589560Y-96878058D01*
X157426390Y-96766569D01*
X157174500Y-96715560D01*
X155499500Y-96715560D01*
X155264183Y-96759838D01*
X155119405Y-96853000D01*
X151804000Y-96853000D01*
X151494026Y-96914658D01*
X151399227Y-96978001D01*
X151231243Y-97090244D01*
X147255244Y-101066244D01*
X147079658Y-101329026D01*
X147064787Y-101403789D01*
X146876559Y-101524910D01*
X146771274Y-101679000D01*
X141559513Y-101679000D01*
X141541022Y-101660509D01*
X141588716Y-101545648D01*
X141589284Y-100895205D01*
X141340894Y-100294057D01*
X141274379Y-100227426D01*
X141405441Y-100143090D01*
X141550431Y-99930890D01*
X141601440Y-99679000D01*
X141601440Y-97679000D01*
X141557162Y-97443683D01*
X141418090Y-97227559D01*
X141205890Y-97082569D01*
X140954000Y-97031560D01*
X138954000Y-97031560D01*
X138718683Y-97075838D01*
X138502559Y-97214910D01*
X138357569Y-97427110D01*
X138306560Y-97679000D01*
X138306560Y-99679000D01*
X138350838Y-99914317D01*
X138489910Y-100130441D01*
X138632561Y-100227910D01*
X138568722Y-100291637D01*
X138319284Y-100892352D01*
X138318716Y-101542795D01*
X138567106Y-102143943D01*
X138993978Y-102571562D01*
X138981073Y-102606468D01*
X139954000Y-103579395D01*
X139968143Y-103565253D01*
X140147748Y-103744858D01*
X140133605Y-103759000D01*
X140147748Y-103773143D01*
X139968143Y-103952748D01*
X139954000Y-103938605D01*
X138981073Y-104911532D01*
X138994164Y-104946938D01*
X138568722Y-105371637D01*
X138319284Y-105972352D01*
X138318716Y-106622795D01*
X138567106Y-107223943D01*
X138911759Y-107569199D01*
X138568722Y-107911637D01*
X138319284Y-108512352D01*
X138318716Y-109162795D01*
X138567106Y-109763943D01*
X138911759Y-110109199D01*
X138568722Y-110451637D01*
X138319284Y-111052352D01*
X138318716Y-111702795D01*
X138567106Y-112303943D01*
X139026637Y-112764278D01*
X139627352Y-113013716D01*
X140277795Y-113014284D01*
X140878943Y-112765894D01*
X141339278Y-112306363D01*
X141368599Y-112235750D01*
X154864500Y-112235750D01*
X154864500Y-112376309D01*
X154961173Y-112609698D01*
X155139801Y-112788327D01*
X155373190Y-112885000D01*
X156051250Y-112885000D01*
X156210000Y-112726250D01*
X156210000Y-112077000D01*
X155023250Y-112077000D01*
X154864500Y-112235750D01*
X141368599Y-112235750D01*
X141588716Y-111705648D01*
X141589284Y-111055205D01*
X141340894Y-110454057D01*
X140996241Y-110108801D01*
X141339278Y-109766363D01*
X141388011Y-109649000D01*
X148889488Y-109649000D01*
X150593571Y-111353084D01*
X150717883Y-111653943D01*
X150980673Y-111917192D01*
X151324201Y-112059838D01*
X151696167Y-112060162D01*
X152039943Y-111918117D01*
X152244969Y-111713448D01*
X152479000Y-111760000D01*
X154960250Y-111760000D01*
X155023250Y-111823000D01*
X155213318Y-111823000D01*
X155247610Y-111846431D01*
X155499500Y-111897440D01*
X157174500Y-111897440D01*
X157409817Y-111853162D01*
X157456690Y-111823000D01*
X157650750Y-111823000D01*
X157809500Y-111664250D01*
X157809500Y-111523691D01*
X157780630Y-111453993D01*
X157821940Y-111250000D01*
X157821940Y-110650000D01*
X157782926Y-110442658D01*
X157821940Y-110250000D01*
X157821940Y-109650000D01*
X157782926Y-109442658D01*
X157821940Y-109250000D01*
X157821940Y-108650000D01*
X157782926Y-108442658D01*
X157821940Y-108250000D01*
X157821940Y-107934942D01*
X157985110Y-108046431D01*
X158237000Y-108097440D01*
X160037000Y-108097440D01*
X160272317Y-108053162D01*
X160488441Y-107914090D01*
X160580000Y-107780089D01*
X160580000Y-112121189D01*
X160501090Y-111998559D01*
X160288890Y-111853569D01*
X160037000Y-111802560D01*
X158237000Y-111802560D01*
X158001683Y-111846838D01*
X157785559Y-111985910D01*
X157693862Y-112120112D01*
X157650750Y-112077000D01*
X156464000Y-112077000D01*
X156464000Y-112726250D01*
X156622750Y-112885000D01*
X157300810Y-112885000D01*
X157534199Y-112788327D01*
X157589560Y-112732966D01*
X157589560Y-113650000D01*
X157633838Y-113885317D01*
X157772910Y-114101441D01*
X157985110Y-114246431D01*
X158237000Y-114297440D01*
X159462362Y-114297440D01*
X159188069Y-114352000D01*
X138499931Y-114352000D01*
X137929414Y-114238517D01*
X137505042Y-113954961D01*
X137221482Y-113530585D01*
X137108000Y-112960069D01*
X137108000Y-103494461D01*
X138308092Y-103494461D01*
X138332144Y-104144460D01*
X138534613Y-104633264D01*
X138801468Y-104731927D01*
X139774395Y-103759000D01*
X138801468Y-102786073D01*
X138534613Y-102884736D01*
X138308092Y-103494461D01*
X137108000Y-103494461D01*
X137108000Y-96335931D01*
X137221482Y-95765415D01*
X137505042Y-95341039D01*
X137929414Y-95057483D01*
X138499931Y-94944000D01*
X159188069Y-94944000D01*
X159758585Y-95057482D01*
X159758585Y-95057482D01*
G37*
X159758585Y-95057482D02*
X160182961Y-95341042D01*
X160186110Y-95345756D01*
X160037000Y-95315560D01*
X158237000Y-95315560D01*
X158001683Y-95359838D01*
X157785559Y-95498910D01*
X157640569Y-95711110D01*
X157589560Y-95963000D01*
X157589560Y-96878058D01*
X157426390Y-96766569D01*
X157174500Y-96715560D01*
X155499500Y-96715560D01*
X155264183Y-96759838D01*
X155119405Y-96853000D01*
X151804000Y-96853000D01*
X151494026Y-96914658D01*
X151399227Y-96978001D01*
X151231243Y-97090244D01*
X147255244Y-101066244D01*
X147079658Y-101329026D01*
X147064787Y-101403789D01*
X146876559Y-101524910D01*
X146771274Y-101679000D01*
X141559513Y-101679000D01*
X141541022Y-101660509D01*
X141588716Y-101545648D01*
X141589284Y-100895205D01*
X141340894Y-100294057D01*
X141274379Y-100227426D01*
X141405441Y-100143090D01*
X141550431Y-99930890D01*
X141601440Y-99679000D01*
X141601440Y-97679000D01*
X141557162Y-97443683D01*
X141418090Y-97227559D01*
X141205890Y-97082569D01*
X140954000Y-97031560D01*
X138954000Y-97031560D01*
X138718683Y-97075838D01*
X138502559Y-97214910D01*
X138357569Y-97427110D01*
X138306560Y-97679000D01*
X138306560Y-99679000D01*
X138350838Y-99914317D01*
X138489910Y-100130441D01*
X138632561Y-100227910D01*
X138568722Y-100291637D01*
X138319284Y-100892352D01*
X138318716Y-101542795D01*
X138567106Y-102143943D01*
X138993978Y-102571562D01*
X138981073Y-102606468D01*
X139954000Y-103579395D01*
X139968143Y-103565253D01*
X140147748Y-103744858D01*
X140133605Y-103759000D01*
X140147748Y-103773143D01*
X139968143Y-103952748D01*
X139954000Y-103938605D01*
X138981073Y-104911532D01*
X138994164Y-104946938D01*
X138568722Y-105371637D01*
X138319284Y-105972352D01*
X138318716Y-106622795D01*
X138567106Y-107223943D01*
X138911759Y-107569199D01*
X138568722Y-107911637D01*
X138319284Y-108512352D01*
X138318716Y-109162795D01*
X138567106Y-109763943D01*
X138911759Y-110109199D01*
X138568722Y-110451637D01*
X138319284Y-111052352D01*
X138318716Y-111702795D01*
X138567106Y-112303943D01*
X139026637Y-112764278D01*
X139627352Y-113013716D01*
X140277795Y-113014284D01*
X140878943Y-112765894D01*
X141339278Y-112306363D01*
X141368599Y-112235750D01*
X154864500Y-112235750D01*
X154864500Y-112376309D01*
X154961173Y-112609698D01*
X155139801Y-112788327D01*
X155373190Y-112885000D01*
X156051250Y-112885000D01*
X156210000Y-112726250D01*
X156210000Y-112077000D01*
X155023250Y-112077000D01*
X154864500Y-112235750D01*
X141368599Y-112235750D01*
X141588716Y-111705648D01*
X141589284Y-111055205D01*
X141340894Y-110454057D01*
X140996241Y-110108801D01*
X141339278Y-109766363D01*
X141388011Y-109649000D01*
X148889488Y-109649000D01*
X150593571Y-111353084D01*
X150717883Y-111653943D01*
X150980673Y-111917192D01*
X151324201Y-112059838D01*
X151696167Y-112060162D01*
X152039943Y-111918117D01*
X152244969Y-111713448D01*
X152479000Y-111760000D01*
X154960250Y-111760000D01*
X155023250Y-111823000D01*
X155213318Y-111823000D01*
X155247610Y-111846431D01*
X155499500Y-111897440D01*
X157174500Y-111897440D01*
X157409817Y-111853162D01*
X157456690Y-111823000D01*
X157650750Y-111823000D01*
X157809500Y-111664250D01*
X157809500Y-111523691D01*
X157780630Y-111453993D01*
X157821940Y-111250000D01*
X157821940Y-110650000D01*
X157782926Y-110442658D01*
X157821940Y-110250000D01*
X157821940Y-109650000D01*
X157782926Y-109442658D01*
X157821940Y-109250000D01*
X157821940Y-108650000D01*
X157782926Y-108442658D01*
X157821940Y-108250000D01*
X157821940Y-107934942D01*
X157985110Y-108046431D01*
X158237000Y-108097440D01*
X160037000Y-108097440D01*
X160272317Y-108053162D01*
X160488441Y-107914090D01*
X160580000Y-107780089D01*
X160580000Y-112121189D01*
X160501090Y-111998559D01*
X160288890Y-111853569D01*
X160037000Y-111802560D01*
X158237000Y-111802560D01*
X158001683Y-111846838D01*
X157785559Y-111985910D01*
X157693862Y-112120112D01*
X157650750Y-112077000D01*
X156464000Y-112077000D01*
X156464000Y-112726250D01*
X156622750Y-112885000D01*
X157300810Y-112885000D01*
X157534199Y-112788327D01*
X157589560Y-112732966D01*
X157589560Y-113650000D01*
X157633838Y-113885317D01*
X157772910Y-114101441D01*
X157985110Y-114246431D01*
X158237000Y-114297440D01*
X159462362Y-114297440D01*
X159188069Y-114352000D01*
X138499931Y-114352000D01*
X137929414Y-114238517D01*
X137505042Y-113954961D01*
X137221482Y-113530585D01*
X137108000Y-112960069D01*
X137108000Y-103494461D01*
X138308092Y-103494461D01*
X138332144Y-104144460D01*
X138534613Y-104633264D01*
X138801468Y-104731927D01*
X139774395Y-103759000D01*
X138801468Y-102786073D01*
X138534613Y-102884736D01*
X138308092Y-103494461D01*
X137108000Y-103494461D01*
X137108000Y-96335931D01*
X137221482Y-95765415D01*
X137505042Y-95341039D01*
X137929414Y-95057483D01*
X138499931Y-94944000D01*
X159188069Y-94944000D01*
X159758585Y-95057482D01*
G36*
X146780845Y-103311355D02*
X146679888Y-103613972D01*
X146711783Y-104064375D01*
X146822783Y-104332352D01*
X146978662Y-104359270D01*
X147013392Y-104394000D01*
X146978662Y-104428730D01*
X146822783Y-104455648D01*
X146679888Y-104883972D01*
X146711783Y-105334375D01*
X146822783Y-105602352D01*
X146905092Y-105616566D01*
X146866355Y-105655235D01*
X146693197Y-106072244D01*
X146692803Y-106523775D01*
X146865233Y-106941086D01*
X146905449Y-106981373D01*
X146822783Y-106995648D01*
X146679888Y-107423972D01*
X146711783Y-107874375D01*
X146775831Y-108029000D01*
X141388388Y-108029000D01*
X141340894Y-107914057D01*
X140996241Y-107568801D01*
X141339278Y-107226363D01*
X141588716Y-106625648D01*
X141589284Y-105975205D01*
X141540755Y-105857757D01*
X143210513Y-104188000D01*
X144038559Y-104188000D01*
X144339201Y-104312838D01*
X144711167Y-104313162D01*
X145054943Y-104171117D01*
X145318192Y-103908327D01*
X145460838Y-103564799D01*
X145461070Y-103299000D01*
X146772895Y-103299000D01*
X146780845Y-103311355D01*
X146780845Y-103311355D01*
G37*
X146780845Y-103311355D02*
X146679888Y-103613972D01*
X146711783Y-104064375D01*
X146822783Y-104332352D01*
X146978662Y-104359270D01*
X147013392Y-104394000D01*
X146978662Y-104428730D01*
X146822783Y-104455648D01*
X146679888Y-104883972D01*
X146711783Y-105334375D01*
X146822783Y-105602352D01*
X146905092Y-105616566D01*
X146866355Y-105655235D01*
X146693197Y-106072244D01*
X146692803Y-106523775D01*
X146865233Y-106941086D01*
X146905449Y-106981373D01*
X146822783Y-106995648D01*
X146679888Y-107423972D01*
X146711783Y-107874375D01*
X146775831Y-108029000D01*
X141388388Y-108029000D01*
X141340894Y-107914057D01*
X140996241Y-107568801D01*
X141339278Y-107226363D01*
X141588716Y-106625648D01*
X141589284Y-105975205D01*
X141540755Y-105857757D01*
X143210513Y-104188000D01*
X144038559Y-104188000D01*
X144339201Y-104312838D01*
X144711167Y-104313162D01*
X145054943Y-104171117D01*
X145318192Y-103908327D01*
X145460838Y-103564799D01*
X145461070Y-103299000D01*
X146772895Y-103299000D01*
X146780845Y-103311355D01*
G36*
X147900955Y-107434065D02*
X147963063Y-107496173D01*
X147962936Y-107641954D01*
X147842143Y-107762748D01*
X147828000Y-107748605D01*
X147813858Y-107762748D01*
X147634253Y-107583143D01*
X147648395Y-107569000D01*
X147634253Y-107554858D01*
X147755173Y-107433937D01*
X147900955Y-107434065D01*
X147900955Y-107434065D01*
G37*
X147900955Y-107434065D02*
X147963063Y-107496173D01*
X147962936Y-107641954D01*
X147842143Y-107762748D01*
X147828000Y-107748605D01*
X147813858Y-107762748D01*
X147634253Y-107583143D01*
X147648395Y-107569000D01*
X147634253Y-107554858D01*
X147755173Y-107433937D01*
X147900955Y-107434065D01*
G36*
X156484000Y-102790000D02*
X156464000Y-102790000D01*
X156464000Y-103439250D01*
X156622750Y-103598000D01*
X156739501Y-103598000D01*
X156739501Y-105922697D01*
X155799599Y-106862599D01*
X155706080Y-107002560D01*
X155499500Y-107002560D01*
X155264183Y-107046838D01*
X155048059Y-107185910D01*
X154903069Y-107398110D01*
X154876134Y-107531121D01*
X154135018Y-106790005D01*
X154325943Y-106711117D01*
X154589192Y-106448327D01*
X154714884Y-106145629D01*
X154941756Y-105918757D01*
X155065986Y-105732833D01*
X155117342Y-105655974D01*
X155179000Y-105346000D01*
X155179000Y-103517564D01*
X155373190Y-103598000D01*
X156051250Y-103598000D01*
X156210000Y-103439250D01*
X156210000Y-102790000D01*
X156190000Y-102790000D01*
X156190000Y-102610440D01*
X156484000Y-102610440D01*
X156484000Y-102790000D01*
X156484000Y-102790000D01*
G37*
X156484000Y-102790000D02*
X156464000Y-102790000D01*
X156464000Y-103439250D01*
X156622750Y-103598000D01*
X156739501Y-103598000D01*
X156739501Y-105922697D01*
X155799599Y-106862599D01*
X155706080Y-107002560D01*
X155499500Y-107002560D01*
X155264183Y-107046838D01*
X155048059Y-107185910D01*
X154903069Y-107398110D01*
X154876134Y-107531121D01*
X154135018Y-106790005D01*
X154325943Y-106711117D01*
X154589192Y-106448327D01*
X154714884Y-106145629D01*
X154941756Y-105918757D01*
X155065986Y-105732833D01*
X155117342Y-105655974D01*
X155179000Y-105346000D01*
X155179000Y-103517564D01*
X155373190Y-103598000D01*
X156051250Y-103598000D01*
X156210000Y-103439250D01*
X156210000Y-102790000D01*
X156190000Y-102790000D01*
X156190000Y-102610440D01*
X156484000Y-102610440D01*
X156484000Y-102790000D01*
G36*
X147963063Y-104956173D02*
X147962935Y-105101955D01*
X147900827Y-105164063D01*
X147755046Y-105163936D01*
X147634253Y-105043143D01*
X147648395Y-105029000D01*
X147634253Y-105014858D01*
X147746497Y-104902613D01*
X147898723Y-104891833D01*
X147963063Y-104956173D01*
X147963063Y-104956173D01*
G37*
X147963063Y-104956173D02*
X147962935Y-105101955D01*
X147900827Y-105164063D01*
X147755046Y-105163936D01*
X147634253Y-105043143D01*
X147648395Y-105029000D01*
X147634253Y-105014858D01*
X147746497Y-104902613D01*
X147898723Y-104891833D01*
X147963063Y-104956173D01*
G36*
X147963063Y-103686173D02*
X147962935Y-103831955D01*
X147909503Y-103885387D01*
X147757276Y-103896166D01*
X147634253Y-103773143D01*
X147648395Y-103759000D01*
X147634253Y-103744858D01*
X147742670Y-103636440D01*
X147913330Y-103636440D01*
X147963063Y-103686173D01*
X147963063Y-103686173D01*
G37*
X147963063Y-103686173D02*
X147962935Y-103831955D01*
X147909503Y-103885387D01*
X147757276Y-103896166D01*
X147634253Y-103773143D01*
X147648395Y-103759000D01*
X147634253Y-103744858D01*
X147742670Y-103636440D01*
X147913330Y-103636440D01*
X147963063Y-103686173D01*
M02*
