G04 #@! TF.FileFunction,Copper,L2,Bot,Signal*
%FSLAX46Y46*%
G04 Gerber Fmt 4.6, Leading zero omitted, Abs format (unit mm)*
G04 Created by KiCad (PCBNEW 4.0.0-rc2-stable) date 11/11/2015 8:28:50 AM*
%MOMM*%
G01*
G04 APERTURE LIST*
%ADD10C,0.100000*%
%ADD11R,1.000000X1.000000*%
%ADD12C,1.000000*%
%ADD13R,2.000000X2.000000*%
%ADD14C,2.000000*%
%ADD15C,0.600000*%
%ADD16C,0.350000*%
%ADD17C,0.254000*%
G04 APERTURE END LIST*
D10*
D11*
X150265000Y-102660000D03*
D12*
X151535000Y-102660000D03*
X150265000Y-103930000D03*
X151535000Y-103930000D03*
X150265000Y-105200000D03*
X151535000Y-105200000D03*
X150265000Y-106470000D03*
X151535000Y-106470000D03*
X150265000Y-107740000D03*
X151535000Y-107740000D03*
D13*
X144700000Y-98900000D03*
D14*
X144700000Y-101440000D03*
X144700000Y-103980000D03*
X144700000Y-106520000D03*
X144700000Y-109060000D03*
X144700000Y-111600000D03*
D15*
X153162000Y-103568500D03*
X154368500Y-102298500D03*
X155257500Y-105092500D03*
X153998672Y-103874828D03*
D16*
X151535000Y-102660000D02*
X151535000Y-101952894D01*
X151535000Y-101952894D02*
X151367105Y-101784999D01*
X151367105Y-101784999D02*
X149435001Y-101784999D01*
X149435001Y-101784999D02*
X145699999Y-105520001D01*
X145699999Y-105520001D02*
X144700000Y-106520000D01*
X152253500Y-102660000D02*
X153162000Y-103568500D01*
X151535000Y-102660000D02*
X152253500Y-102660000D01*
X154368500Y-102298500D02*
X154368500Y-101874236D01*
X154368500Y-101874236D02*
X151394264Y-98900000D01*
X146050000Y-98900000D02*
X144700000Y-98900000D01*
X151394264Y-98900000D02*
X146050000Y-98900000D01*
X151535000Y-107740000D02*
X154673673Y-104601327D01*
X154673673Y-104601327D02*
X154673673Y-102603673D01*
X154673673Y-102603673D02*
X154368500Y-102298500D01*
X155257500Y-105092500D02*
X155257500Y-105537000D01*
X155257500Y-105537000D02*
X149194500Y-111600000D01*
X149194500Y-111600000D02*
X144700000Y-111600000D01*
X151535000Y-105200000D02*
X152673500Y-105200000D01*
X152673500Y-105200000D02*
X153998672Y-103874828D01*
D17*
G36*
X159839742Y-94861550D02*
X160332919Y-95191081D01*
X160662450Y-95684258D01*
X160788000Y-96315441D01*
X160788000Y-112980559D01*
X160662450Y-113611742D01*
X160332919Y-114104919D01*
X159839742Y-114434450D01*
X159208559Y-114560000D01*
X143178441Y-114560000D01*
X142547258Y-114434450D01*
X142054081Y-114104919D01*
X141724550Y-113611742D01*
X141599000Y-112980559D01*
X141599000Y-104288081D01*
X143061682Y-104288081D01*
X143304289Y-104891587D01*
X143323688Y-104920618D01*
X143600083Y-105012035D01*
X144632118Y-103980000D01*
X143600083Y-102947965D01*
X143323688Y-103039382D01*
X143068495Y-103637673D01*
X143061682Y-104288081D01*
X141599000Y-104288081D01*
X141599000Y-97900000D01*
X143264635Y-97900000D01*
X143264635Y-99900000D01*
X143294409Y-100058237D01*
X143387927Y-100203567D01*
X143530619Y-100301064D01*
X143700000Y-100335365D01*
X143786718Y-100335365D01*
X143490953Y-100630614D01*
X143273248Y-101154907D01*
X143272752Y-101722603D01*
X143489543Y-102247275D01*
X143815214Y-102573515D01*
X143788413Y-102584289D01*
X143759382Y-102603688D01*
X143667965Y-102880083D01*
X144700000Y-103912118D01*
X145732035Y-102880083D01*
X145640618Y-102603688D01*
X145580019Y-102577840D01*
X145909047Y-102249386D01*
X146126752Y-101725093D01*
X146127248Y-101157397D01*
X145910457Y-100632725D01*
X145613616Y-100335365D01*
X145700000Y-100335365D01*
X145858237Y-100305591D01*
X146003567Y-100212073D01*
X146101064Y-100069381D01*
X146135365Y-99900000D01*
X146135365Y-99502000D01*
X151144908Y-99502000D01*
X153686968Y-102044060D01*
X153641626Y-102153256D01*
X153641374Y-102442475D01*
X153751820Y-102709775D01*
X153956150Y-102914461D01*
X154071673Y-102962431D01*
X154071673Y-103147891D01*
X153854697Y-103147702D01*
X153786405Y-103175920D01*
X153778680Y-103157225D01*
X153574350Y-102952539D01*
X153307244Y-102841626D01*
X153286464Y-102841608D01*
X152679178Y-102234322D01*
X152483875Y-102103825D01*
X152253500Y-102058000D01*
X152243883Y-102058000D01*
X152136512Y-101950441D01*
X152091175Y-101722519D01*
X152091175Y-101722518D01*
X151960678Y-101527215D01*
X151792783Y-101359321D01*
X151597480Y-101228824D01*
X151367105Y-101182999D01*
X149435001Y-101182999D01*
X149204626Y-101228824D01*
X149204624Y-101228825D01*
X149204625Y-101228825D01*
X149009322Y-101359321D01*
X146334524Y-104034120D01*
X146338318Y-103671919D01*
X146095711Y-103068413D01*
X146076312Y-103039382D01*
X145799917Y-102947965D01*
X144767882Y-103980000D01*
X144782025Y-103994143D01*
X144714143Y-104062025D01*
X144700000Y-104047882D01*
X143667965Y-105079917D01*
X143759382Y-105356312D01*
X143819981Y-105382160D01*
X143490953Y-105710614D01*
X143273248Y-106234907D01*
X143272752Y-106802603D01*
X143489543Y-107327275D01*
X143890614Y-107729047D01*
X144037118Y-107789881D01*
X143892725Y-107849543D01*
X143490953Y-108250614D01*
X143273248Y-108774907D01*
X143272752Y-109342603D01*
X143489543Y-109867275D01*
X143890614Y-110269047D01*
X144037118Y-110329881D01*
X143892725Y-110389543D01*
X143490953Y-110790614D01*
X143273248Y-111314907D01*
X143272752Y-111882603D01*
X143489543Y-112407275D01*
X143890614Y-112809047D01*
X144414907Y-113026752D01*
X144982603Y-113027248D01*
X145507275Y-112810457D01*
X145909047Y-112409386D01*
X145995161Y-112202000D01*
X149194500Y-112202000D01*
X149424875Y-112156175D01*
X149620178Y-112025678D01*
X155683178Y-105962678D01*
X155813675Y-105767375D01*
X155859500Y-105537000D01*
X155859500Y-105518787D01*
X155873461Y-105504850D01*
X155984374Y-105237744D01*
X155984626Y-104948525D01*
X155874180Y-104681225D01*
X155669850Y-104476539D01*
X155402744Y-104365626D01*
X155275673Y-104365515D01*
X155275673Y-102603673D01*
X155229848Y-102373298D01*
X155099351Y-102177995D01*
X155095609Y-102174253D01*
X155095626Y-102154525D01*
X154985180Y-101887225D01*
X154970074Y-101872092D01*
X154924675Y-101643861D01*
X154794178Y-101448558D01*
X151819942Y-98474322D01*
X151624639Y-98343825D01*
X151394264Y-98298000D01*
X146135365Y-98298000D01*
X146135365Y-97900000D01*
X146105591Y-97741763D01*
X146012073Y-97596433D01*
X145869381Y-97498936D01*
X145700000Y-97464635D01*
X143700000Y-97464635D01*
X143541763Y-97494409D01*
X143396433Y-97587927D01*
X143298936Y-97730619D01*
X143264635Y-97900000D01*
X141599000Y-97900000D01*
X141599000Y-96315441D01*
X141724550Y-95684258D01*
X142054081Y-95191081D01*
X142547258Y-94861550D01*
X143178441Y-94736000D01*
X159208559Y-94736000D01*
X159839742Y-94861550D01*
X159839742Y-94861550D01*
G37*
X159839742Y-94861550D02*
X160332919Y-95191081D01*
X160662450Y-95684258D01*
X160788000Y-96315441D01*
X160788000Y-112980559D01*
X160662450Y-113611742D01*
X160332919Y-114104919D01*
X159839742Y-114434450D01*
X159208559Y-114560000D01*
X143178441Y-114560000D01*
X142547258Y-114434450D01*
X142054081Y-114104919D01*
X141724550Y-113611742D01*
X141599000Y-112980559D01*
X141599000Y-104288081D01*
X143061682Y-104288081D01*
X143304289Y-104891587D01*
X143323688Y-104920618D01*
X143600083Y-105012035D01*
X144632118Y-103980000D01*
X143600083Y-102947965D01*
X143323688Y-103039382D01*
X143068495Y-103637673D01*
X143061682Y-104288081D01*
X141599000Y-104288081D01*
X141599000Y-97900000D01*
X143264635Y-97900000D01*
X143264635Y-99900000D01*
X143294409Y-100058237D01*
X143387927Y-100203567D01*
X143530619Y-100301064D01*
X143700000Y-100335365D01*
X143786718Y-100335365D01*
X143490953Y-100630614D01*
X143273248Y-101154907D01*
X143272752Y-101722603D01*
X143489543Y-102247275D01*
X143815214Y-102573515D01*
X143788413Y-102584289D01*
X143759382Y-102603688D01*
X143667965Y-102880083D01*
X144700000Y-103912118D01*
X145732035Y-102880083D01*
X145640618Y-102603688D01*
X145580019Y-102577840D01*
X145909047Y-102249386D01*
X146126752Y-101725093D01*
X146127248Y-101157397D01*
X145910457Y-100632725D01*
X145613616Y-100335365D01*
X145700000Y-100335365D01*
X145858237Y-100305591D01*
X146003567Y-100212073D01*
X146101064Y-100069381D01*
X146135365Y-99900000D01*
X146135365Y-99502000D01*
X151144908Y-99502000D01*
X153686968Y-102044060D01*
X153641626Y-102153256D01*
X153641374Y-102442475D01*
X153751820Y-102709775D01*
X153956150Y-102914461D01*
X154071673Y-102962431D01*
X154071673Y-103147891D01*
X153854697Y-103147702D01*
X153786405Y-103175920D01*
X153778680Y-103157225D01*
X153574350Y-102952539D01*
X153307244Y-102841626D01*
X153286464Y-102841608D01*
X152679178Y-102234322D01*
X152483875Y-102103825D01*
X152253500Y-102058000D01*
X152243883Y-102058000D01*
X152136512Y-101950441D01*
X152091175Y-101722519D01*
X152091175Y-101722518D01*
X151960678Y-101527215D01*
X151792783Y-101359321D01*
X151597480Y-101228824D01*
X151367105Y-101182999D01*
X149435001Y-101182999D01*
X149204626Y-101228824D01*
X149204624Y-101228825D01*
X149204625Y-101228825D01*
X149009322Y-101359321D01*
X146334524Y-104034120D01*
X146338318Y-103671919D01*
X146095711Y-103068413D01*
X146076312Y-103039382D01*
X145799917Y-102947965D01*
X144767882Y-103980000D01*
X144782025Y-103994143D01*
X144714143Y-104062025D01*
X144700000Y-104047882D01*
X143667965Y-105079917D01*
X143759382Y-105356312D01*
X143819981Y-105382160D01*
X143490953Y-105710614D01*
X143273248Y-106234907D01*
X143272752Y-106802603D01*
X143489543Y-107327275D01*
X143890614Y-107729047D01*
X144037118Y-107789881D01*
X143892725Y-107849543D01*
X143490953Y-108250614D01*
X143273248Y-108774907D01*
X143272752Y-109342603D01*
X143489543Y-109867275D01*
X143890614Y-110269047D01*
X144037118Y-110329881D01*
X143892725Y-110389543D01*
X143490953Y-110790614D01*
X143273248Y-111314907D01*
X143272752Y-111882603D01*
X143489543Y-112407275D01*
X143890614Y-112809047D01*
X144414907Y-113026752D01*
X144982603Y-113027248D01*
X145507275Y-112810457D01*
X145909047Y-112409386D01*
X145995161Y-112202000D01*
X149194500Y-112202000D01*
X149424875Y-112156175D01*
X149620178Y-112025678D01*
X155683178Y-105962678D01*
X155813675Y-105767375D01*
X155859500Y-105537000D01*
X155859500Y-105518787D01*
X155873461Y-105504850D01*
X155984374Y-105237744D01*
X155984626Y-104948525D01*
X155874180Y-104681225D01*
X155669850Y-104476539D01*
X155402744Y-104365626D01*
X155275673Y-104365515D01*
X155275673Y-102603673D01*
X155229848Y-102373298D01*
X155099351Y-102177995D01*
X155095609Y-102174253D01*
X155095626Y-102154525D01*
X154985180Y-101887225D01*
X154970074Y-101872092D01*
X154924675Y-101643861D01*
X154794178Y-101448558D01*
X151819942Y-98474322D01*
X151624639Y-98343825D01*
X151394264Y-98298000D01*
X146135365Y-98298000D01*
X146135365Y-97900000D01*
X146105591Y-97741763D01*
X146012073Y-97596433D01*
X145869381Y-97498936D01*
X145700000Y-97464635D01*
X143700000Y-97464635D01*
X143541763Y-97494409D01*
X143396433Y-97587927D01*
X143298936Y-97730619D01*
X143264635Y-97900000D01*
X141599000Y-97900000D01*
X141599000Y-96315441D01*
X141724550Y-95684258D01*
X142054081Y-95191081D01*
X142547258Y-94861550D01*
X143178441Y-94736000D01*
X159208559Y-94736000D01*
X159839742Y-94861550D01*
G36*
X149329635Y-103160000D02*
X149352637Y-103282248D01*
X149301368Y-103289212D01*
X149129501Y-103706755D01*
X149130504Y-104158285D01*
X149298978Y-104565018D01*
X149129501Y-104976755D01*
X149130504Y-105428285D01*
X149301368Y-105840788D01*
X149525839Y-105871279D01*
X150197118Y-105200000D01*
X150182976Y-105185858D01*
X150250858Y-105117976D01*
X150265000Y-105132118D01*
X150279143Y-105117976D01*
X150347025Y-105185858D01*
X150332882Y-105200000D01*
X150347025Y-105214143D01*
X150279143Y-105282025D01*
X150265000Y-105267882D01*
X149925703Y-105607179D01*
X149740583Y-105683669D01*
X149479586Y-105944211D01*
X149338161Y-106284799D01*
X149337839Y-106653583D01*
X149478669Y-106994417D01*
X149739211Y-107255414D01*
X149925757Y-107332875D01*
X150265000Y-107672118D01*
X150279143Y-107657976D01*
X150347025Y-107725858D01*
X150332882Y-107740000D01*
X150672179Y-108079297D01*
X150748669Y-108264417D01*
X151009211Y-108525414D01*
X151297869Y-108645275D01*
X148945144Y-110998000D01*
X145995275Y-110998000D01*
X145910457Y-110792725D01*
X145509386Y-110390953D01*
X145362882Y-110330119D01*
X145507275Y-110270457D01*
X145909047Y-109869386D01*
X146126752Y-109345093D01*
X146127248Y-108777397D01*
X146004019Y-108479161D01*
X149593721Y-108479161D01*
X149624212Y-108703632D01*
X150041755Y-108875499D01*
X150493285Y-108874496D01*
X150905788Y-108703632D01*
X150936279Y-108479161D01*
X150265000Y-107807882D01*
X149593721Y-108479161D01*
X146004019Y-108479161D01*
X145910457Y-108252725D01*
X145509386Y-107850953D01*
X145362882Y-107790119D01*
X145507275Y-107730457D01*
X145721350Y-107516755D01*
X149129501Y-107516755D01*
X149130504Y-107968285D01*
X149301368Y-108380788D01*
X149525839Y-108411279D01*
X150197118Y-107740000D01*
X149525839Y-107068721D01*
X149301368Y-107099212D01*
X149129501Y-107516755D01*
X145721350Y-107516755D01*
X145909047Y-107329386D01*
X146126752Y-106805093D01*
X146127248Y-106237397D01*
X146041495Y-106029861D01*
X146125677Y-105945679D01*
X149329635Y-102741722D01*
X149329635Y-103160000D01*
X149329635Y-103160000D01*
G37*
X149329635Y-103160000D02*
X149352637Y-103282248D01*
X149301368Y-103289212D01*
X149129501Y-103706755D01*
X149130504Y-104158285D01*
X149298978Y-104565018D01*
X149129501Y-104976755D01*
X149130504Y-105428285D01*
X149301368Y-105840788D01*
X149525839Y-105871279D01*
X150197118Y-105200000D01*
X150182976Y-105185858D01*
X150250858Y-105117976D01*
X150265000Y-105132118D01*
X150279143Y-105117976D01*
X150347025Y-105185858D01*
X150332882Y-105200000D01*
X150347025Y-105214143D01*
X150279143Y-105282025D01*
X150265000Y-105267882D01*
X149925703Y-105607179D01*
X149740583Y-105683669D01*
X149479586Y-105944211D01*
X149338161Y-106284799D01*
X149337839Y-106653583D01*
X149478669Y-106994417D01*
X149739211Y-107255414D01*
X149925757Y-107332875D01*
X150265000Y-107672118D01*
X150279143Y-107657976D01*
X150347025Y-107725858D01*
X150332882Y-107740000D01*
X150672179Y-108079297D01*
X150748669Y-108264417D01*
X151009211Y-108525414D01*
X151297869Y-108645275D01*
X148945144Y-110998000D01*
X145995275Y-110998000D01*
X145910457Y-110792725D01*
X145509386Y-110390953D01*
X145362882Y-110330119D01*
X145507275Y-110270457D01*
X145909047Y-109869386D01*
X146126752Y-109345093D01*
X146127248Y-108777397D01*
X146004019Y-108479161D01*
X149593721Y-108479161D01*
X149624212Y-108703632D01*
X150041755Y-108875499D01*
X150493285Y-108874496D01*
X150905788Y-108703632D01*
X150936279Y-108479161D01*
X150265000Y-107807882D01*
X149593721Y-108479161D01*
X146004019Y-108479161D01*
X145910457Y-108252725D01*
X145509386Y-107850953D01*
X145362882Y-107790119D01*
X145507275Y-107730457D01*
X145721350Y-107516755D01*
X149129501Y-107516755D01*
X149130504Y-107968285D01*
X149301368Y-108380788D01*
X149525839Y-108411279D01*
X150197118Y-107740000D01*
X149525839Y-107068721D01*
X149301368Y-107099212D01*
X149129501Y-107516755D01*
X145721350Y-107516755D01*
X145909047Y-107329386D01*
X146126752Y-106805093D01*
X146127248Y-106237397D01*
X146041495Y-106029861D01*
X146125677Y-105945679D01*
X149329635Y-102741722D01*
X149329635Y-103160000D01*
G36*
X150347025Y-103915858D02*
X150332882Y-103930000D01*
X150347025Y-103944143D01*
X150279143Y-104012025D01*
X150265000Y-103997882D01*
X150250858Y-104012025D01*
X150182976Y-103944143D01*
X150197118Y-103930000D01*
X150182976Y-103915858D01*
X150250858Y-103847976D01*
X150265000Y-103862118D01*
X150279143Y-103847976D01*
X150347025Y-103915858D01*
X150347025Y-103915858D01*
G37*
X150347025Y-103915858D02*
X150332882Y-103930000D01*
X150347025Y-103944143D01*
X150279143Y-104012025D01*
X150265000Y-103997882D01*
X150250858Y-104012025D01*
X150182976Y-103944143D01*
X150197118Y-103930000D01*
X150182976Y-103915858D01*
X150250858Y-103847976D01*
X150265000Y-103862118D01*
X150279143Y-103847976D01*
X150347025Y-103915858D01*
M02*
