G04 #@! TF.FileFunction,Soldermask,Bot*
%FSLAX46Y46*%
G04 Gerber Fmt 4.6, Leading zero omitted, Abs format (unit mm)*
G04 Created by KiCad (PCBNEW 4.0.0-rc2-stable) date 11/11/2015 8:28:50 AM*
%MOMM*%
G01*
G04 APERTURE LIST*
%ADD10C,0.100000*%
%ADD11C,0.150000*%
%ADD12R,1.400000X1.400000*%
%ADD13C,1.400000*%
%ADD14R,2.400000X2.400000*%
%ADD15C,2.400000*%
G04 APERTURE END LIST*
D10*
D11*
X158723286Y-112552761D02*
X157913762Y-112552761D01*
X157818524Y-112600380D01*
X157770905Y-112647999D01*
X157723286Y-112743238D01*
X157723286Y-112886095D01*
X157770905Y-112981333D01*
X158104238Y-112552761D02*
X158056619Y-112647999D01*
X158056619Y-112838476D01*
X158104238Y-112933714D01*
X158151857Y-112981333D01*
X158247095Y-113028952D01*
X158532810Y-113028952D01*
X158628048Y-112981333D01*
X158675667Y-112933714D01*
X158723286Y-112838476D01*
X158723286Y-112647999D01*
X158675667Y-112552761D01*
X158056619Y-112076571D02*
X158723286Y-112076571D01*
X159056619Y-112076571D02*
X159009000Y-112124190D01*
X158961381Y-112076571D01*
X159009000Y-112028952D01*
X159056619Y-112076571D01*
X158961381Y-112076571D01*
X158723286Y-111743238D02*
X158723286Y-111362286D01*
X159056619Y-111600381D02*
X158199476Y-111600381D01*
X158104238Y-111552762D01*
X158056619Y-111457524D01*
X158056619Y-111362286D01*
X158056619Y-111028952D02*
X159056619Y-111028952D01*
X158056619Y-110600380D02*
X158580429Y-110600380D01*
X158675667Y-110647999D01*
X158723286Y-110743237D01*
X158723286Y-110886095D01*
X158675667Y-110981333D01*
X158628048Y-111028952D01*
X158723286Y-109695618D02*
X158056619Y-109695618D01*
X158723286Y-110124190D02*
X158199476Y-110124190D01*
X158104238Y-110076571D01*
X158056619Y-109981333D01*
X158056619Y-109838475D01*
X158104238Y-109743237D01*
X158151857Y-109695618D01*
X158056619Y-109219428D02*
X159056619Y-109219428D01*
X158675667Y-109219428D02*
X158723286Y-109124190D01*
X158723286Y-108933713D01*
X158675667Y-108838475D01*
X158628048Y-108790856D01*
X158532810Y-108743237D01*
X158247095Y-108743237D01*
X158151857Y-108790856D01*
X158104238Y-108838475D01*
X158056619Y-108933713D01*
X158056619Y-109124190D01*
X158104238Y-109219428D01*
X158151857Y-108314666D02*
X158104238Y-108267047D01*
X158056619Y-108314666D01*
X158104238Y-108362285D01*
X158151857Y-108314666D01*
X158056619Y-108314666D01*
X158104238Y-107409904D02*
X158056619Y-107505142D01*
X158056619Y-107695619D01*
X158104238Y-107790857D01*
X158151857Y-107838476D01*
X158247095Y-107886095D01*
X158532810Y-107886095D01*
X158628048Y-107838476D01*
X158675667Y-107790857D01*
X158723286Y-107695619D01*
X158723286Y-107505142D01*
X158675667Y-107409904D01*
X158056619Y-106838476D02*
X158104238Y-106933714D01*
X158151857Y-106981333D01*
X158247095Y-107028952D01*
X158532810Y-107028952D01*
X158628048Y-106981333D01*
X158675667Y-106933714D01*
X158723286Y-106838476D01*
X158723286Y-106695618D01*
X158675667Y-106600380D01*
X158628048Y-106552761D01*
X158532810Y-106505142D01*
X158247095Y-106505142D01*
X158151857Y-106552761D01*
X158104238Y-106600380D01*
X158056619Y-106695618D01*
X158056619Y-106838476D01*
X158056619Y-106076571D02*
X158723286Y-106076571D01*
X158628048Y-106076571D02*
X158675667Y-106028952D01*
X158723286Y-105933714D01*
X158723286Y-105790856D01*
X158675667Y-105695618D01*
X158580429Y-105647999D01*
X158056619Y-105647999D01*
X158580429Y-105647999D02*
X158675667Y-105600380D01*
X158723286Y-105505142D01*
X158723286Y-105362285D01*
X158675667Y-105267047D01*
X158580429Y-105219428D01*
X158056619Y-105219428D01*
X159104238Y-104028952D02*
X157818524Y-104886095D01*
X158723286Y-103695619D02*
X158056619Y-103695619D01*
X158628048Y-103695619D02*
X158675667Y-103648000D01*
X158723286Y-103552762D01*
X158723286Y-103409904D01*
X158675667Y-103314666D01*
X158580429Y-103267047D01*
X158056619Y-103267047D01*
X158056619Y-102648000D02*
X158104238Y-102743238D01*
X158151857Y-102790857D01*
X158247095Y-102838476D01*
X158532810Y-102838476D01*
X158628048Y-102790857D01*
X158675667Y-102743238D01*
X158723286Y-102648000D01*
X158723286Y-102505142D01*
X158675667Y-102409904D01*
X158628048Y-102362285D01*
X158532810Y-102314666D01*
X158247095Y-102314666D01*
X158151857Y-102362285D01*
X158104238Y-102409904D01*
X158056619Y-102505142D01*
X158056619Y-102648000D01*
X158056619Y-101457523D02*
X158580429Y-101457523D01*
X158675667Y-101505142D01*
X158723286Y-101600380D01*
X158723286Y-101790857D01*
X158675667Y-101886095D01*
X158104238Y-101457523D02*
X158056619Y-101552761D01*
X158056619Y-101790857D01*
X158104238Y-101886095D01*
X158199476Y-101933714D01*
X158294714Y-101933714D01*
X158389952Y-101886095D01*
X158437571Y-101790857D01*
X158437571Y-101552761D01*
X158485190Y-101457523D01*
X158056619Y-100981333D02*
X159056619Y-100981333D01*
X158056619Y-100552761D02*
X158580429Y-100552761D01*
X158675667Y-100600380D01*
X158723286Y-100695618D01*
X158723286Y-100838476D01*
X158675667Y-100933714D01*
X158628048Y-100981333D01*
X158723286Y-100076571D02*
X157723286Y-100076571D01*
X158675667Y-100076571D02*
X158723286Y-99981333D01*
X158723286Y-99790856D01*
X158675667Y-99695618D01*
X158628048Y-99647999D01*
X158532810Y-99600380D01*
X158247095Y-99600380D01*
X158151857Y-99647999D01*
X158104238Y-99695618D01*
X158056619Y-99790856D01*
X158056619Y-99981333D01*
X158104238Y-100076571D01*
X159104238Y-98457523D02*
X157818524Y-99314666D01*
X158723286Y-98124190D02*
X157866143Y-98124190D01*
X157770905Y-98171809D01*
X157723286Y-98267047D01*
X157723286Y-98314666D01*
X159056619Y-98124190D02*
X159009000Y-98171809D01*
X158961381Y-98124190D01*
X159009000Y-98076571D01*
X159056619Y-98124190D01*
X158961381Y-98124190D01*
X158723286Y-97648000D02*
X157723286Y-97648000D01*
X158675667Y-97648000D02*
X158723286Y-97552762D01*
X158723286Y-97362285D01*
X158675667Y-97267047D01*
X158628048Y-97219428D01*
X158532810Y-97171809D01*
X158247095Y-97171809D01*
X158151857Y-97219428D01*
X158104238Y-97267047D01*
X158056619Y-97362285D01*
X158056619Y-97552762D01*
X158104238Y-97648000D01*
X158056619Y-96314666D02*
X158580429Y-96314666D01*
X158675667Y-96362285D01*
X158723286Y-96457523D01*
X158723286Y-96648000D01*
X158675667Y-96743238D01*
X158104238Y-96314666D02*
X158056619Y-96409904D01*
X158056619Y-96648000D01*
X158104238Y-96743238D01*
X158199476Y-96790857D01*
X158294714Y-96790857D01*
X158389952Y-96743238D01*
X158437571Y-96648000D01*
X158437571Y-96409904D01*
X158485190Y-96314666D01*
X157173286Y-105362286D02*
X156506619Y-105124191D01*
X157173286Y-104886095D01*
X156506619Y-103981333D02*
X156506619Y-104552762D01*
X156506619Y-104267048D02*
X157506619Y-104267048D01*
X157363762Y-104362286D01*
X157268524Y-104457524D01*
X157220905Y-104552762D01*
D12*
X150265000Y-102660000D03*
D13*
X151535000Y-102660000D03*
X150265000Y-103930000D03*
X151535000Y-103930000D03*
X150265000Y-105200000D03*
X151535000Y-105200000D03*
X150265000Y-106470000D03*
X151535000Y-106470000D03*
X150265000Y-107740000D03*
X151535000Y-107740000D03*
D14*
X144700000Y-98900000D03*
D15*
X144700000Y-101440000D03*
X144700000Y-103980000D03*
X144700000Y-106520000D03*
X144700000Y-109060000D03*
X144700000Y-111600000D03*
M02*
