M48
;DRILL file {KiCad 4.0.0-rc2-stable} date 11/11/2015 8:28:54 AM
;FORMAT={-:-/ absolute / inch / decimal}
FMAT,2
INCH,TZ
T1C0.016
T2C0.028
T3C0.047
%
G90
G05
M72
T1
X6.03Y-4.0775
X6.0629Y-4.0896
X6.0775Y-4.0275
X6.1125Y-4.1375
T2
X5.9159Y-4.0417
X5.9159Y-4.0917
X5.9159Y-4.1417
X5.9159Y-4.1917
X5.9159Y-4.2417
X5.9659Y-4.0417
X5.9659Y-4.0917
X5.9659Y-4.1417
X5.9659Y-4.1917
X5.9659Y-4.2417
T3
X5.6969Y-3.8937
X5.6969Y-3.9937
X5.6969Y-4.0937
X5.6969Y-4.1937
X5.6969Y-4.2937
X5.6969Y-4.3937
T0
M30
